<svg id="svg" xmlns="http://www.w3.org/2000/svg" xmlns:xlink="http://www.w3.org/1999/xlink" width="400" height="319.26977687626777" viewBox="0, 0, 400,319.26977687626777"><g id="svgg"><path id="path0" d="M225.745 7.658 C 222.873 8.963,217.604 14.365,213.232 20.487 C 199.624 39.542,186.744 63.712,178.264 86.105 C 177.947 86.942,177.420 88.311,177.093 89.148 C 174.861 94.855,167.951 118.132,167.951 119.942 C 167.951 120.409,167.703 121.498,167.401 122.363 C 167.098 123.228,166.718 124.826,166.556 125.915 C 166.094 129.034,166.230 128.796,158.604 139.936 C 155.279 144.793,152.474 148.736,148.073 154.740 C 143.333 161.205,142.952 161.714,139.978 165.571 C 138.538 167.438,136.801 169.696,136.117 170.588 C 115.164 197.961,80.992 235.545,47.059 268.537 C 40.923 274.503,33.803 281.272,31.237 283.579 C 28.671 285.887,24.746 289.461,22.515 291.521 C 20.284 293.581,17.699 295.876,16.771 296.619 C 14.878 298.137,6.995 304.892,4.970 306.733 C 1.588 309.807,5.183 314.506,9.196 312.257 C 10.370 311.600,24.438 299.602,28.568 295.736 C 30.371 294.048,33.763 290.956,36.105 288.863 C 44.624 281.256,69.102 257.136,80.589 245.030 C 94.220 230.666,103.581 220.500,111.596 211.359 C 116.925 205.280,119.296 202.516,126.183 194.349 C 133.597 185.558,146.025 169.648,154.569 158.012 C 155.388 156.897,157.066 154.615,158.298 152.941 C 159.530 151.268,161.012 149.138,161.591 148.209 C 163.185 145.651,163.296 145.792,163.157 150.188 C 162.594 167.882,172.148 175.959,186.070 169.559 C 196.718 164.664,208.081 154.538,223.729 136.003 C 225.066 134.420,226.194 133.158,226.236 133.201 C 226.279 133.243,225.047 136.743,223.499 140.979 C 221.009 147.797,219.745 151.819,217.572 159.838 C 217.240 161.065,216.710 162.982,216.395 164.097 C 212.848 176.643,210.588 192.320,211.380 198.888 C 214.366 223.676,237.222 216.992,259.561 184.799 L 260.907 182.859 262.684 186.460 C 270.577 202.455,286.199 204.719,293.867 190.979 C 303.179 174.295,303.036 142.128,293.552 119.828 C 292.311 116.910,292.286 116.498,293.151 113.123 C 294.019 109.735,293.747 105.678,292.520 103.692 L 291.620 102.235 292.767 101.803 C 295.419 100.805,301.335 98.430,302.840 97.760 C 303.732 97.363,307.475 95.723,311.156 94.117 C 314.838 92.510,319.190 90.575,320.827 89.817 C 322.465 89.059,323.879 88.438,323.970 88.438 C 324.061 88.438,325.277 87.906,326.672 87.255 C 328.067 86.604,334.047 83.943,339.959 81.341 C 345.872 78.740,351.440 76.275,352.333 75.864 C 353.225 75.453,356.237 74.168,359.026 73.008 C 361.815 71.849,366.471 69.915,369.371 68.710 C 372.272 67.505,375.010 66.358,375.456 66.161 C 378.288 64.910,379.699 64.323,384.790 62.275 C 392.607 59.129,394.305 57.123,391.512 54.330 C 389.947 52.765,388.645 52.804,384.705 54.531 C 382.965 55.294,378.438 57.190,374.645 58.745 C 357.460 65.790,344.120 71.529,330.505 77.736 C 327.872 78.937,325.639 79.919,325.544 79.919 C 325.448 79.919,323.812 80.649,321.907 81.542 C 320.002 82.434,318.365 83.164,318.270 83.164 C 318.121 83.164,315.868 84.169,306.491 88.418 C 305.598 88.822,302.495 90.109,299.594 91.278 C 296.694 92.447,293.773 93.641,293.103 93.933 C 292.434 94.225,289.970 95.130,287.627 95.944 C 280.357 98.471,279.916 98.670,278.906 99.870 C 277.627 101.390,277.244 103.517,277.894 105.487 C 278.400 107.022,278.382 107.077,276.480 109.606 C 273.067 114.147,267.609 126.345,265.532 134.077 C 265.232 135.193,264.616 137.475,264.162 139.148 C 261.945 147.332,259.245 164.349,259.233 170.212 C 259.224 175.045,243.011 195.606,233.874 202.372 C 219.399 213.090,214.911 203.552,221.114 175.254 C 222.697 168.030,225.017 158.964,226.201 155.375 C 226.974 153.032,228.178 149.381,228.877 147.262 C 234.008 131.694,244.491 109.114,250.394 100.915 C 252.202 98.404,254.519 95.191,255.543 93.777 C 265.389 80.168,276.196 64.324,281.839 55.224 C 285.384 49.507,285.690 47.034,283.052 45.425 C 279.532 43.279,278.258 44.486,265.067 62.475 C 259.254 70.403,250.503 84.339,244.693 94.921 C 241.440 100.847,240.661 102.025,234.666 110.079 C 211.023 141.845,195.704 157.541,182.673 163.349 C 171.931 168.137,168.156 158.681,171.944 136.478 L 172.702 132.037 179.150 121.802 C 189.074 106.051,189.460 105.410,198.969 88.844 C 219.331 53.372,233.816 21.989,233.857 13.256 L 233.874 9.676 232.359 8.286 C 230.570 6.645,228.424 6.442,225.745 7.658 M225.119 20.376 C 220.402 32.450,205.020 64.198,199.559 73.130 C 198.909 74.193,198.377 75.165,198.377 75.290 C 198.377 75.415,197.672 76.736,196.811 78.225 C 195.949 79.715,194.367 82.485,193.295 84.381 C 186.260 96.825,178.509 109.680,178.503 108.917 C 178.501 108.689,178.876 107.137,179.336 105.469 C 180.072 102.801,180.825 100.513,183.808 91.886 C 192.246 67.485,211.491 32.399,224.169 18.305 C 226.595 15.609,226.803 16.064,225.119 20.376 M284.381 117.502 C 284.381 120.165,276.643 139.663,271.202 150.710 C 268.217 156.770,267.537 157.306,268.530 152.817 C 268.737 151.881,269.215 149.564,269.592 147.667 C 271.953 135.791,277.072 121.734,281.436 115.139 L 282.477 113.566 283.429 115.242 C 283.953 116.164,284.381 117.181,284.381 117.502 M289.585 130.426 C 289.795 131.318,290.422 133.783,290.977 135.903 C 294.868 150.753,293.934 173.665,288.992 184.556 C 285.461 192.339,281.546 194.517,276.260 191.640 C 269.605 188.018,265.028 176.863,268.083 171.710 C 275.248 159.621,284.952 139.164,288.021 129.679 C 288.598 127.895,289.039 128.106,289.585 130.426 " stroke="none" fill="#000000" fill-rule="evenodd"></path></g></svg>